<svg width="32" height="36" viewBox="0 0 32 36" fill="none" xmlns="http://www.w3.org/2000/svg">
<path d="M22.8941 5.78125H9.32356C5.27887 5.78125 2 9.06012 2 13.1048V26.6754C2 30.7201 5.27887 33.9989 9.32356 33.9989H22.8941C26.9388 33.9989 30.2177 30.7201 30.2177 26.6754V13.1048C30.2177 9.06012 26.9388 5.78125 22.8941 5.78125Z" stroke="#064B87" stroke-width="3" stroke-linecap="round" stroke-linejoin="round"/>
<path d="M8.87012 2V9.35189" stroke="#064B87" stroke-width="3" stroke-linecap="round" stroke-linejoin="round"/>
<path d="M23.2344 2V9.35189" stroke="#064B87" stroke-width="3" stroke-linecap="round" stroke-linejoin="round"/>
<path d="M9.56426 17.5406C10.3155 17.5406 10.9244 16.9317 10.9244 16.1805C10.9244 15.4293 10.3155 14.8203 9.56426 14.8203C8.81307 14.8203 8.2041 15.4293 8.2041 16.1805C8.2041 16.9317 8.81307 17.5406 9.56426 17.5406Z" fill="#064B87"/>
<path d="M16.1092 17.5406C16.8604 17.5406 17.4693 16.9317 17.4693 16.1805C17.4693 15.4293 16.8604 14.8203 16.1092 14.8203C15.358 14.8203 14.749 15.4293 14.749 16.1805C14.749 16.9317 15.358 17.5406 16.1092 17.5406Z" fill="#064B87"/>
<path d="M22.6531 17.5406C23.4043 17.5406 24.0133 16.9317 24.0133 16.1805C24.0133 15.4293 23.4043 14.8203 22.6531 14.8203C21.9019 14.8203 21.293 15.4293 21.293 16.1805C21.293 16.9317 21.9019 17.5406 22.6531 17.5406Z" fill="#064B87"/>
<path d="M9.56426 23.2359C10.3155 23.2359 10.9244 22.627 10.9244 21.8758C10.9244 21.1246 10.3155 20.5156 9.56426 20.5156C8.81307 20.5156 8.2041 21.1246 8.2041 21.8758C8.2041 22.627 8.81307 23.2359 9.56426 23.2359Z" fill="#064B87"/>
<path d="M16.1092 23.2359C16.8604 23.2359 17.4693 22.627 17.4693 21.8758C17.4693 21.1246 16.8604 20.5156 16.1092 20.5156C15.358 20.5156 14.749 21.1246 14.749 21.8758C14.749 22.627 15.358 23.2359 16.1092 23.2359Z" fill="#064B87"/>
<path d="M22.6531 23.2359C23.4043 23.2359 24.0133 22.627 24.0133 21.8758C24.0133 21.1246 23.4043 20.5156 22.6531 20.5156C21.9019 20.5156 21.293 21.1246 21.293 21.8758C21.293 22.627 21.9019 23.2359 22.6531 23.2359Z" fill="#064B87"/>
<path d="M9.56426 28.9293C10.3155 28.9293 10.9244 28.3203 10.9244 27.5691C10.9244 26.8179 10.3155 26.209 9.56426 26.209C8.81307 26.209 8.2041 26.8179 8.2041 27.5691C8.2041 28.3203 8.81307 28.9293 9.56426 28.9293Z" fill="#064B87"/>
<path d="M16.1092 28.9293C16.8604 28.9293 17.4693 28.3203 17.4693 27.5691C17.4693 26.8179 16.8604 26.209 16.1092 26.209C15.358 26.209 14.749 26.8179 14.749 27.5691C14.749 28.3203 15.358 28.9293 16.1092 28.9293Z" fill="#064B87"/>
<path d="M22.6531 28.9293C23.4043 28.9293 24.0133 28.3203 24.0133 27.5691C24.0133 26.8179 23.4043 26.209 22.6531 26.209C21.9019 26.209 21.293 26.8179 21.293 27.5691C21.293 28.3203 21.9019 28.9293 22.6531 28.9293Z" fill="#064B87"/>
</svg>
