<svg width="34" height="30" viewBox="0 0 34 30" fill="none" xmlns="http://www.w3.org/2000/svg">
<path d="M25.6817 9.98215C26.4669 11.3422 28.2051 11.808 29.5652 11.0227C29.5906 11.008 29.6144 10.9943 29.6389 10.9779L31.7025 14.5521C31.824 14.7626 31.7515 15.0331 31.541 15.1547L9.79028 27.5758C9.57973 27.6973 9.30923 27.6249 9.18767 27.4143L7.12411 23.8401C7.14037 23.833 7.15735 23.8232 7.17263 23.8144C8.53269 23.0291 8.99844 21.2909 8.21321 19.9309C7.42797 18.5708 5.68978 18.1051 4.32972 18.8903C4.31443 18.8991 4.29745 18.9089 4.28315 18.9194L2.22057 15.3469C2.09901 15.1364 2.17149 14.8659 2.38204 14.7443L24.1327 2.32326C24.3433 2.2017 24.6138 2.27418 24.7354 2.48473L26.7979 6.05722C26.7715 6.07023 26.7477 6.08395 26.7222 6.09866C25.3622 6.88389 24.8964 8.62209 25.6817 9.98215Z" stroke="#064B87" stroke-width="3" stroke-miterlimit="10" stroke-linejoin="round"/>
<path d="M16.7065 6.57233L17.0006 7.08171" stroke="#064B87" stroke-width="3" stroke-miterlimit="10" stroke-linejoin="round"/>
<path d="M17.561 6.40631L24.2324 19.7464" stroke="#064B87" stroke-width="3" stroke-miterlimit="10" stroke-linejoin="round" stroke-dasharray="2 2"/>
<path d="M23.9194 19.0665L24.2135 19.5759" stroke="#064B87" stroke-width="3" stroke-miterlimit="10" stroke-linejoin="round"/>
</svg>
