<svg width="34" height="26" viewBox="0 0 34 26" fill="none" xmlns="http://www.w3.org/2000/svg">
<path d="M21.8912 11.011C24.3795 11.011 26.3967 8.99379 26.3967 6.50548C26.3967 4.01717 24.3795 2 21.8912 2C19.4029 2 17.3857 4.01717 17.3857 6.50548C17.3857 8.99379 19.4029 11.011 21.8912 11.011Z" stroke="#064B87" stroke-width="3" stroke-linecap="round" stroke-linejoin="round"/>
<path d="M11.7803 23.5395C11.7803 17.9352 16.2858 13.4297 21.8901 13.4297C27.4945 13.4297 32 17.9352 32 23.5395" stroke="#064B87" stroke-width="3" stroke-linecap="round" stroke-linejoin="round"/>
<path d="M9.69271 11.3425C11.5741 11.3425 13.0993 9.81731 13.0993 7.93591C13.0993 6.05451 11.5741 4.52933 9.69271 4.52933C7.81131 4.52933 6.28613 6.05451 6.28613 7.93591C6.28613 9.81731 7.81131 11.3425 9.69271 11.3425Z" stroke="#064B87" stroke-width="3" stroke-linecap="round" stroke-linejoin="round"/>
<path d="M2 20.7939C2 16.5082 5.40658 13.1016 9.69228 13.1016C10.7912 13.1016 11.7802 13.3214 12.6593 13.651" stroke="#064B87" stroke-width="3" stroke-linecap="round" stroke-linejoin="round"/>
</svg>
